<svg width="257" height="227" viewBox="0 0 257 227" fill="none" xmlns="http://www.w3.org/2000/svg">
<path fill-rule="evenodd" clip-rule="evenodd" d="M11 149.545V121.37C11.3118 108.631 21.882 98.5534 34.6209 98.8477H44.3006C52.6196 73.1124 76.334 55.4765 103.375 54.9155H152.93C179.97 55.4765 203.685 73.1124 212.004 98.8477C214.673 106.508 216.03 114.562 216.017 122.674V148.242C217.26 184.357 189.041 214.665 152.93 216H103.375C76.334 215.439 52.6196 197.803 44.3006 172.068H34.6209C21.882 172.362 11.3118 162.284 11 149.545Z" stroke="#F5BA41" stroke-width="21.9661" stroke-linecap="round" stroke-linejoin="round"/>
<path fill-rule="evenodd" clip-rule="evenodd" d="M157.441 120.814C157.441 136.989 144.328 150.102 128.152 150.102C111.977 150.102 98.8643 136.989 98.8643 120.814C98.8643 104.638 111.977 91.5254 128.152 91.5254C144.328 91.5254 157.441 104.638 157.441 120.814Z" stroke="#F5BA41" stroke-width="21.9661" stroke-linecap="round" stroke-linejoin="round"/>
<path d="M139.136 10.983C139.136 4.91733 134.218 0 128.153 0C122.087 0 117.17 4.91733 117.17 10.983H139.136ZM117.17 54.9152C117.17 60.9809 122.087 65.8983 128.153 65.8983C134.218 65.8983 139.136 60.9809 139.136 54.9152H117.17ZM33.9296 175.68C35.9252 181.409 42.1865 184.435 47.9147 182.439C53.6427 180.444 56.6685 174.182 54.6728 168.455L33.9296 175.68ZM40.2888 148.242L51.2719 148.259V148.242H40.2888ZM40.2888 122.673H51.2719V122.656L40.2888 122.673ZM54.6728 102.46C56.6685 96.7328 53.6427 90.471 47.9147 88.4765C42.1865 86.4805 35.9252 89.5059 33.9296 95.2347L54.6728 102.46ZM212.004 87.8644C205.939 87.8644 201.021 92.7818 201.021 98.8474C201.021 104.913 205.939 109.83 212.004 109.83V87.8644ZM221.684 98.8474V109.83C221.769 109.83 221.854 109.829 221.939 109.828L221.684 98.8474ZM245.305 121.37H256.288C256.288 121.281 256.288 121.191 256.285 121.102L245.305 121.37ZM245.305 149.545L256.285 149.813C256.288 149.724 256.288 149.634 256.288 149.545H245.305ZM221.684 172.068L221.939 161.088C221.854 161.086 221.769 161.085 221.684 161.085V172.068ZM212.004 161.085C205.939 161.085 201.021 166.002 201.021 172.068C201.021 178.133 205.939 183.051 212.004 183.051V161.085ZM98.8645 168.407C92.7989 168.407 87.882 173.324 87.882 179.39C87.882 185.455 92.7989 190.373 98.8645 190.373V168.407ZM157.441 190.373C163.506 190.373 168.424 185.455 168.424 179.39C168.424 173.324 163.506 168.407 157.441 168.407V190.373ZM117.17 10.983V54.9152H139.136V10.983H117.17ZM54.6728 168.455C52.4109 161.962 51.261 155.135 51.2719 148.259L29.3058 148.224C29.2911 157.572 30.8544 166.854 33.9296 175.68L54.6728 168.455ZM51.2719 148.242V122.673H29.3058V148.242H51.2719ZM51.2719 122.656C51.261 115.78 52.4109 108.953 54.6728 102.46L33.9296 95.2347C30.8544 104.061 29.2911 113.344 29.3058 122.691L51.2719 122.656ZM212.004 109.83H221.684V87.8644H212.004V109.83ZM221.939 109.828C228.62 109.672 234.162 114.959 234.326 121.638L256.285 121.102C255.825 102.305 240.228 87.4324 221.431 87.8673L221.939 109.828ZM234.322 121.37V149.545H256.288V121.37H234.322ZM234.326 149.277C234.162 155.956 228.62 161.243 221.939 161.088L221.431 183.048C240.228 183.483 255.825 168.61 256.285 149.813L234.326 149.277ZM221.684 161.085H212.004V183.051H221.684V161.085ZM98.8645 190.373H157.441V168.407H98.8645V190.373Z" fill="#F5BA41"/>
<path d="M13.0001 102.5C10.0001 74.3335 28.4001 18.9002 126 22.5002" stroke="#F5BA41" stroke-width="17"/>
<path d="M241 103.167C244 75.0005 225.6 19.5672 128 23.1672" stroke="#F5BA41" stroke-width="17"/>
</svg>
