<svg width="209" height="254" viewBox="0 0 209 254" fill="none" xmlns="http://www.w3.org/2000/svg">
<path d="M196.664 0.0733804C192.893 -0.252645 190.068 0.506003 188.031 2.38357C185.377 4.82837 184.095 9.10478 184.002 15.826C181.807 18.3362 179.619 20.8331 177.439 23.3168C176.999 23.5817 174.45 28.6958 173.472 29.4869C168.418 35.3437 163.319 41.3459 158.389 47.1498C156.272 49.6397 154.154 52.1319 152.033 54.6265C151.459 54.614 150.862 54.572 150.236 54.5284C148.383 54.2837 146.503 54.3795 144.686 54.8116C142.268 55.5478 140.83 54.8599 138.704 53.1466C127 43.7261 116.123 36.4064 105.45 30.7714C104.612 30.385 103.873 29.8082 103.292 29.0858C102.712 28.3634 102.304 27.5149 102.102 26.6069C101.255 23.3406 99.1744 20.5407 96.3062 18.8103C93.4387 17.08 90.0132 16.5574 86.7681 17.3553C83.4684 18.1343 80.5813 20.1434 78.6829 22.9812C76.7846 25.8191 76.015 29.2766 76.5281 32.6631C76.6605 33.5579 76.8207 34.4527 76.9746 35.3047L77.0982 36.0049L17.2458 100.406C17.028 100.385 16.8109 100.361 16.5947 100.338C15.8804 100.26 15.1411 100.183 14.4001 100.163C7.3114 99.9568 2.95396 103.092 0.678291 110.033C-1.02866 115.238 0.839887 119.884 2.39446 122.927C3.4477 125.112 5.05173 126.98 7.04542 128.339C9.03913 129.699 11.3519 130.504 13.7512 130.673C13.9928 130.687 14.2338 130.693 14.4745 130.694C16.784 130.659 19.0487 130.042 21.0641 128.902C23.0794 127.76 24.7819 126.13 26.0183 124.157C29.7123 118.544 30.2865 113.283 27.7623 108.094L86.3435 45.3111L97.9291 41.693L132.299 65.5317C132.57 70.6587 133.833 74.5034 136.37 77.9504C137.847 80.0676 139.992 81.6161 142.452 82.3428C144.913 83.0688 147.543 82.9295 149.916 81.9483C156.774 79.3137 160.582 73.4755 160.403 65.9029L190.786 24.8901C196.703 26.0573 201.296 25.5127 204.442 23.2639C206.874 21.528 208.355 18.8366 208.841 15.2643C209.12 13.463 209.031 11.6226 208.578 9.85759C208.126 8.09262 207.32 6.44042 206.209 5.0034C205.037 3.56509 203.585 2.38546 201.942 1.53746C200.301 0.689449 198.504 0.191151 196.664 0.0733804Z" fill="#F5BA41"/>
<path fill-rule="evenodd" clip-rule="evenodd" d="M28.7309 171.322C24.6928 171.322 21.4192 174.587 21.4192 178.614V232.123C21.4192 236.151 24.6928 239.415 28.7309 239.415C32.7689 239.415 36.0425 236.151 36.0425 232.123V178.614C36.0425 174.587 32.7689 171.322 28.7309 171.322ZM28.7309 156.738C40.8452 156.738 50.6658 166.532 50.6658 178.614V232.123C50.6658 244.206 40.8452 254 28.7309 254C16.6165 254 6.7959 244.206 6.7959 232.123V178.614C6.7959 166.532 16.6165 156.738 28.7309 156.738ZM87.2241 78.9844C99.3388 78.9844 109.159 88.7791 109.159 100.861V232.123C109.159 244.206 99.3388 254 87.2241 254C75.1094 254 65.2891 244.206 65.2891 232.123V100.861C65.2891 88.7791 75.1094 78.9844 87.2241 78.9844ZM87.2241 93.569C83.1859 93.569 79.9124 96.8339 79.9124 100.861V232.123C79.9124 236.151 83.1859 239.415 87.2241 239.415C91.2623 239.415 94.5357 236.151 94.5357 232.123V100.861C94.5357 96.8339 91.2623 93.569 87.2241 93.569ZM145.717 130.031C157.832 130.031 167.652 139.825 167.652 151.908V232.123C167.652 244.206 157.832 254 145.717 254C133.603 254 123.782 244.206 123.782 232.123V151.908C123.782 139.825 133.603 130.031 145.717 130.031ZM145.717 144.615C141.679 144.615 138.406 147.88 138.406 151.908V232.123C138.406 236.151 141.679 239.415 145.717 239.415C149.756 239.415 153.029 236.151 153.029 232.123V151.908C153.029 147.88 149.756 144.615 145.717 144.615Z" fill="#F5BA41"/>
</svg>
