<svg width="206" height="217" viewBox="0 0 206 217" fill="none" xmlns="http://www.w3.org/2000/svg">
<path d="M103 138.05C119.343 138.05 132.592 124.82 132.592 108.5C132.592 92.1802 119.343 78.9502 103 78.9502C86.657 78.9502 73.4082 92.1802 73.4082 108.5C73.4082 124.82 86.657 138.05 103 138.05Z" stroke="#F5BA41" stroke-width="20"/>
<path d="M120.414 11.4996C116.788 10 112.192 10 103 10C93.8078 10 89.2122 10 85.5861 11.4996C80.7525 13.499 76.9119 17.3341 74.9096 22.1611C73.9956 24.3647 73.6379 26.9272 73.4979 30.6652C73.2922 36.1584 70.4711 41.2431 65.7036 43.9917C60.9364 46.7401 55.1161 46.6375 50.2492 44.0688C46.9375 42.3208 44.5362 41.3488 42.1681 41.0375C36.9806 40.3555 31.7344 41.7593 27.5834 44.9399C24.4701 47.3254 22.1721 51.3001 17.5761 59.2493C12.98 67.1987 10.682 71.1732 10.1698 75.0584C9.48687 80.2384 10.8926 85.4772 14.0778 89.6225C15.5315 91.5147 17.5748 93.1045 20.746 95.0942C25.4078 98.0196 28.4073 103.003 28.407 108.5C28.4067 113.997 25.4073 118.979 20.7459 121.904C17.5743 123.895 15.5308 125.485 14.0768 127.378C10.8916 131.522 9.48589 136.761 10.1689 141.941C10.681 145.826 12.979 149.801 17.5751 157.75C22.1712 165.699 24.4692 169.674 27.5824 172.059C31.7334 175.24 36.9797 176.643 42.1671 175.962C44.535 175.65 46.9362 174.678 50.2477 172.931C55.1149 170.362 60.9356 170.26 65.7033 173.008C70.4709 175.757 73.2922 180.841 73.4979 186.336C73.638 190.073 73.9956 192.636 74.9096 194.839C76.9119 199.666 80.7525 203.501 85.5861 205.501C89.2122 207 93.8078 207 103 207C112.192 207 116.788 207 120.414 205.501C125.247 203.501 129.088 199.666 131.09 194.839C132.004 192.636 132.362 190.073 132.502 186.335C132.708 180.841 135.529 175.757 140.296 173.008C145.063 170.259 150.884 170.362 155.752 172.931C159.063 174.678 161.464 175.649 163.831 175.961C169.019 176.643 174.266 175.24 178.416 172.059C181.529 169.673 183.828 165.699 188.423 157.749C193.02 149.8 195.318 145.826 195.83 141.941C196.513 136.761 195.107 131.521 191.922 127.377C190.468 125.484 188.424 123.894 185.253 121.904C180.592 118.979 177.593 113.996 177.593 108.499C177.593 103.002 180.592 98.0206 185.253 95.0961C188.425 93.1054 190.469 91.5156 191.923 89.6225C195.108 85.4779 196.514 80.2391 195.831 75.059C195.319 71.1739 193.021 67.1992 188.424 59.25C183.829 51.3008 181.53 47.3261 178.417 44.9406C174.267 41.7599 169.02 40.3562 163.832 41.0382C161.465 41.3495 159.064 42.3214 155.752 44.0692C150.885 46.638 145.064 46.7407 140.297 43.992C135.529 41.2433 132.708 36.1583 132.502 30.6647C132.362 26.927 132.004 24.3646 131.09 22.1611C129.088 17.3341 125.247 13.499 120.414 11.4996Z" stroke="#F5BA41" stroke-width="20"/>
</svg>
