<svg width="229" height="174" viewBox="0 0 229 174" fill="none" xmlns="http://www.w3.org/2000/svg">
<path fill-rule="evenodd" clip-rule="evenodd" d="M134.818 38.667C129.09 38.667 124.447 42.995 124.447 48.3337V125.667C124.447 131.006 129.09 135.334 134.818 135.334H176.3C182.028 135.334 186.671 131.006 186.671 125.667V48.3337C186.671 42.995 182.028 38.667 176.3 38.667H134.818ZM170.153 53.7769H139.909V120.224H170.153V53.7769Z" fill="#F5BA41"/>
<path d="M51.854 38.667C46.1265 38.667 41.4834 42.995 41.4834 48.3337C41.4834 53.6724 46.1265 58.0003 51.854 58.0003H93.3362C99.0639 58.0003 103.707 53.6724 103.707 48.3337C103.707 42.995 99.0639 38.667 93.3362 38.667H51.854Z" fill="#F5BA41"/>
<path d="M51.854 77.333C46.1265 77.333 41.4834 81.6608 41.4834 86.9997C41.4834 92.3386 46.1265 96.6663 51.854 96.6663H93.3362C99.0639 96.6663 103.707 92.3386 103.707 86.9997C103.707 81.6608 99.0639 77.333 93.3362 77.333H51.854Z" fill="#F5BA41"/>
<path d="M41.4834 125.667C41.4834 120.328 46.1265 116 51.854 116H93.3362C99.0639 116 103.707 120.328 103.707 125.667C103.707 131.006 99.0639 135.333 93.3362 135.333H51.854C46.1265 135.333 41.4834 131.006 41.4834 125.667Z" fill="#F5BA41"/>
<path fill-rule="evenodd" clip-rule="evenodd" d="M31.1117 0C13.9292 0 0 12.9838 0 29V145C0 161.017 13.9292 174 31.1117 174H197.041C214.224 174 228.153 161.017 228.153 145V29C228.153 12.9838 214.224 0 197.041 0H31.1117ZM197.041 19.3333H31.1117C25.3843 19.3333 20.7411 23.6613 20.7411 29V145C20.7411 150.339 25.3843 154.667 31.1117 154.667H197.041C202.768 154.667 207.411 150.339 207.411 145V29C207.411 23.6613 202.768 19.3333 197.041 19.3333Z" fill="#F5BA41"/>
</svg>
