<svg width="270" height="200" viewBox="0 0 270 200" fill="none" xmlns="http://www.w3.org/2000/svg">
<path d="M34.9664 164.319H105.371C108.483 164.319 111.467 163.083 113.668 160.882C115.868 158.681 115.345 159.099 115.345 155.986C115.345 152.873 114.729 152.377 112.528 150.176C110.328 147.975 108.483 147.888 105.371 147.888H39.6601V16.4319H229.751V147.888H167.209C164.097 147.888 160.316 146.919 158.115 149.12C155.915 151.321 156.355 152.345 156.355 155.458C156.355 158.571 156.711 158.681 158.912 160.882C161.112 163.083 164.097 164.319 167.209 164.319H234.445C237.557 164.319 240.542 163.083 242.742 160.882C244.943 158.681 246.179 155.695 246.179 152.582V11.7371C246.179 8.62423 244.943 5.63885 242.742 3.43772C240.542 1.23658 237.557 0 234.445 0H34.9664C31.8544 0 28.8698 1.23658 26.6692 3.43772C24.4687 5.63885 23.2324 8.62423 23.2324 11.7371V152.582C23.2324 155.695 24.4687 158.681 26.6692 160.882C28.8698 163.083 31.8544 164.319 34.9664 164.319Z" fill="#F5BA41"/>
<rect y="183.451" width="270" height="16.5493" rx="8.27466" fill="#F5BA41"/>
<path d="M135.001 95.4222C142.291 95.4222 148.201 89.5104 148.201 82.2179C148.201 74.9254 142.291 69.0137 135.001 69.0137C127.71 69.0137 121.8 74.9254 121.8 82.2179C121.8 89.5104 127.71 95.4222 135.001 95.4222Z" stroke="#F5BA41" stroke-width="12.62" stroke-linecap="round" stroke-linejoin="round"/>
<path d="M178.555 77.8072C180.795 80.4387 180.795 83.9981 178.555 86.6296C171.502 94.9138 154.579 111.972 134.825 111.972C115.07 111.972 98.1479 94.9138 91.0944 86.6296C88.854 83.9981 88.8539 80.4387 91.0944 77.8072C98.1479 69.523 115.07 52.4648 134.825 52.4648C154.579 52.4648 171.502 69.523 178.555 77.8072Z" stroke="#F5BA41" stroke-width="12.62" stroke-linecap="round" stroke-linejoin="round"/>
</svg>
