<svg width="217" height="217" viewBox="0 0 217 217" fill="none" xmlns="http://www.w3.org/2000/svg">
<path d="M193.75 170.5C190.296 170.518 186.891 171.315 183.788 172.832C183.788 172.832 168.166 144.532 150.459 139.5C144.492 137.805 136.152 138.145 130.44 138.688C126.705 139.043 124 142.244 124 145.996V145.996C124 150.726 128.235 154.356 132.961 154.179C136.64 154.042 140.79 154.161 144.041 155C159.436 158.975 172.829 183.79 172.829 183.79C171.314 186.893 170.518 190.298 170.5 193.75C170.5 198.349 171.864 202.844 174.418 206.667C176.973 210.491 180.604 213.471 184.853 215.231C189.101 216.99 193.776 217.451 198.286 216.554C202.796 215.657 206.939 213.442 210.19 210.191C213.442 206.939 215.656 202.796 216.553 198.286C217.45 193.776 216.99 189.101 215.23 184.853C213.47 180.605 210.49 176.973 206.667 174.419C202.844 171.864 198.348 170.5 193.75 170.5ZM193.75 201.5C192.217 201.5 190.719 201.046 189.444 200.194C188.17 199.343 187.177 198.132 186.59 196.716C186.003 195.3 185.85 193.742 186.149 192.238C186.448 190.735 187.186 189.354 188.27 188.27C189.354 187.186 190.735 186.448 192.238 186.149C193.741 185.85 195.3 186.004 196.716 186.59C198.132 187.177 199.342 188.17 200.194 189.445C201.045 190.719 201.5 192.218 201.5 193.75C201.498 195.805 200.681 197.775 199.228 199.228C197.775 200.681 195.805 201.499 193.75 201.5Z" fill="#F5BA41"/>
<path d="M193.75 85.25C188.957 85.2645 184.287 86.7622 180.38 89.5375C176.473 92.3128 173.52 96.2296 171.928 100.75H131.75C127.47 100.75 124 104.22 124 108.5V108.5C124 112.78 127.47 116.25 131.75 116.25H171.928C173.356 120.257 175.859 123.795 179.161 126.477C182.464 129.158 186.44 130.88 190.655 131.455C194.87 132.03 199.162 131.435 203.062 129.735C206.962 128.036 210.32 125.297 212.769 121.818C215.218 118.34 216.663 114.255 216.947 110.01C217.232 105.765 216.344 101.524 214.381 97.7499C212.418 93.9757 209.456 90.8136 205.817 88.6091C202.179 86.4046 198.004 85.2426 193.75 85.25ZM193.75 116.25C192.217 116.25 190.719 115.796 189.444 114.944C188.17 114.092 187.177 112.882 186.59 111.466C186.003 110.05 185.85 108.491 186.149 106.988C186.448 105.485 187.186 104.104 188.27 103.02C189.354 101.936 190.735 101.198 192.238 100.899C193.741 100.6 195.3 100.753 196.716 101.34C198.132 101.927 199.342 102.92 200.194 104.194C201.045 105.469 201.5 106.967 201.5 108.5C201.498 110.555 200.681 112.525 199.228 113.978C197.775 115.431 195.805 116.248 193.75 116.25Z" fill="#F5BA41"/>
<path d="M193.75 2.63282e-06C187.586 0.0067721 181.676 2.45849 177.317 6.81725C172.958 11.176 170.507 17.0858 170.5 23.25C170.527 26.9628 171.452 30.6138 173.198 33.8908C173.198 33.8908 159.423 58.1027 144.117 62C140.835 62.8355 136.645 62.9508 132.939 62.8114C128.222 62.6341 124 66.2607 124 70.981V70.981C124 74.7429 126.721 77.9484 130.467 78.2937C136.157 78.8183 144.438 79.1421 150.383 77.5C168.232 72.5697 184.475 44.5439 184.475 44.5439C187.642 45.9244 191.077 46.5814 194.53 46.4671C197.983 46.3529 201.367 45.4702 204.435 43.8834C207.504 42.2965 210.181 40.0454 212.27 37.2939C214.359 34.5424 215.809 31.3597 216.513 27.9775C217.217 24.5952 217.159 21.0985 216.341 17.7417C215.524 14.385 213.968 11.2527 211.788 8.57286C209.608 5.893 206.857 3.73298 203.737 2.24999C200.617 0.767 197.205 -0.00164174 193.75 2.63282e-06ZM193.75 31C192.217 31 190.719 30.5455 189.444 29.6939C188.17 28.8423 187.177 27.6319 186.59 26.2158C186.003 24.7997 185.85 23.2414 186.149 21.7381C186.448 20.2347 187.186 18.8538 188.27 17.7699C189.354 16.6861 190.735 15.948 192.238 15.6489C193.741 15.3499 195.3 15.5034 196.716 16.0899C198.132 16.6765 199.342 17.6699 200.194 18.9443C201.045 20.2188 201.5 21.7172 201.5 23.25C201.498 25.3049 200.681 27.275 199.228 28.728C197.775 30.181 195.805 30.9982 193.75 31Z" fill="#F5BA41"/>
<path d="M124 31H131.75C136.03 31 139.5 27.5302 139.5 23.25V23.25C139.5 18.9698 136.03 15.5 131.75 15.5H124C119.583 15.5148 115.221 16.4791 111.21 18.3275C107.198 20.1758 103.631 22.865 100.75 26.2128C97.8689 22.865 94.3017 20.1758 90.2903 18.3275C86.2788 16.4791 81.9168 15.5148 77.5 15.5H69.75C51.2574 15.5205 33.5282 22.8757 20.452 35.952C7.37574 49.0282 0.0205131 66.7574 0 85.25V131.75C0.0205131 150.243 7.37574 167.972 20.452 181.048C33.5282 194.124 51.2574 201.479 69.75 201.5H77.5C81.9168 201.485 86.2788 200.521 90.2903 198.673C94.3017 196.824 97.8689 194.135 100.75 190.787C103.631 194.135 107.198 196.824 111.21 198.673C115.221 200.521 119.583 201.485 124 201.5H131.75C136.03 201.5 139.5 198.03 139.5 193.75V193.75C139.5 189.47 136.03 186 131.75 186H124C119.891 185.995 115.951 184.361 113.045 181.455C110.139 178.549 108.505 174.609 108.5 170.5V46.5C108.505 42.3906 110.139 38.4508 113.045 35.5451C115.951 32.6393 119.891 31.0047 124 31ZM77.5 186H69.75C56.7178 185.977 44.1287 181.267 34.2823 172.729C24.4358 164.192 17.9892 152.397 16.12 139.5H23.25C27.5302 139.5 31 136.03 31 131.75V131.75C31 127.47 27.5302 124 23.25 124H15.5V93H38.75C44.9142 92.9932 50.824 90.5415 55.1828 86.1828C59.5415 81.824 61.9932 75.9142 62 69.75V62C62 57.7198 58.5302 54.25 54.25 54.25V54.25C49.9698 54.25 46.5 57.7198 46.5 62V69.75C46.4982 71.8049 45.681 73.775 44.228 75.228C42.775 76.681 40.8049 77.4982 38.75 77.5H16.12C17.9892 64.6025 24.4358 52.8079 34.2823 44.2705C44.1287 35.7331 56.7178 31.0228 69.75 31H77.5C81.6094 31.0047 85.5492 32.6393 88.4549 35.5451C91.3607 38.4508 92.9953 42.3906 93 46.5V77.5H85.25C80.9698 77.5 77.5 80.9698 77.5 85.25V85.25C77.5 89.5302 80.9698 93 85.25 93H93V124H77.5C71.3358 124.007 65.426 126.458 61.0672 130.817C56.7085 135.176 54.2568 141.086 54.25 147.25V155C54.25 159.28 57.7198 162.75 62 162.75V162.75C66.2802 162.75 69.75 159.28 69.75 155V147.25C69.7518 145.195 70.569 143.225 72.022 141.772C73.475 140.319 75.4451 139.502 77.5 139.5H93V170.5C92.9953 174.609 91.3607 178.549 88.4549 181.455C85.5492 184.361 81.6094 185.995 77.5 186Z" fill="#F5BA41"/>
</svg>
